<?xml version="1.0" encoding="UTF-8"?>
<svg xmlns="http://www.w3.org/2000/svg" xmlns:xlink="http://www.w3.org/1999/xlink" width="100pt" height="125pt" viewBox="0 0 100 125" version="1.1">
<g id="surface1">
<path style=" stroke:none;fill-rule:nonzero;fill:rgb(0%,0%,0%);fill-opacity:1;" d="M 34.5 28.980469 L 65.511719 28.980469 C 65.933594 28.980469 66.324219 28.679688 66.515625 28.207031 C 66.707031 27.730469 66.667969 27.164062 66.414062 26.734375 L 50.910156 0.570312 C 50.695312 0.210938 50.363281 0 50.007812 0 C 49.648438 0 49.3125 0.210938 49.101562 0.570312 L 33.597656 26.734375 C 33.339844 27.164062 33.300781 27.730469 33.492188 28.207031 C 33.683594 28.679688 34.074219 28.980469 34.5 28.980469 Z M 34.5 28.980469 "/>
<path style=" stroke:none;fill-rule:nonzero;fill:rgb(0%,0%,0%);fill-opacity:1;" d="M 97.296875 47.171875 C 97.296875 46.050781 96.566406 45.140625 95.671875 45.140625 L 92.546875 45.140625 C 91.65625 45.140625 90.933594 46.035156 90.921875 47.148438 L 90.878906 51.511719 L 87.058594 51.511719 L 87.058594 47.171875 C 87.058594 46.050781 86.328125 45.140625 85.433594 45.140625 L 82.261719 45.140625 C 81.363281 45.140625 80.636719 46.050781 80.636719 47.171875 L 80.636719 51.511719 L 76.824219 51.511719 L 76.824219 47.171875 C 76.824219 46.050781 76.09375 45.140625 75.199219 45.140625 L 72.023438 45.140625 C 71.125 45.140625 70.398438 46.050781 70.398438 47.171875 L 70.382812 65.777344 L 62.894531 65.777344 L 62.894531 34.488281 C 62.894531 33.636719 62.34375 32.953125 61.667969 32.953125 L 38.347656 32.953125 C 37.671875 32.953125 37.121094 33.636719 37.121094 34.488281 L 37.121094 65.777344 L 29.695312 65.777344 L 29.707031 47.175781 C 29.707031 46.636719 29.535156 46.117188 29.230469 45.738281 C 28.925781 45.355469 28.511719 45.140625 28.082031 45.140625 L 24.84375 45.140625 C 23.945312 45.140625 23.21875 46.050781 23.21875 47.171875 L 23.21875 51.515625 L 19.402344 51.515625 L 19.402344 47.171875 C 19.402344 46.050781 18.675781 45.140625 17.777344 45.140625 L 14.609375 45.140625 C 13.710938 45.140625 12.984375 46.050781 12.984375 47.171875 L 12.984375 51.515625 L 9.164062 51.515625 L 9.164062 47.171875 C 9.164062 46.050781 8.433594 45.140625 7.539062 45.140625 L 4.367188 45.140625 C 3.46875 45.140625 2.742188 46.050781 2.738281 47.171875 L 2.679688 125 L 37.839844 125 L 37.839844 111.878906 C 37.839844 103.484375 43.285156 96.679688 50 96.679688 C 56.714844 96.679688 62.160156 103.484375 62.160156 111.878906 L 62.160156 125 L 97.320312 125 Z M 20.492188 80.867188 C 20.492188 81.71875 19.945312 82.402344 19.265625 82.402344 L 13.121094 82.402344 C 12.445312 82.402344 11.894531 81.71875 11.894531 80.867188 L 11.894531 65.554688 C 11.894531 62.589844 13.820312 60.183594 16.195312 60.183594 C 18.566406 60.183594 20.492188 62.589844 20.492188 65.554688 Z M 54.304688 59.808594 C 54.304688 60.65625 53.757812 61.34375 53.078125 61.34375 L 46.933594 61.34375 C 46.253906 61.34375 45.707031 60.65625 45.707031 59.808594 L 45.707031 44.496094 C 45.707031 41.527344 47.628906 39.121094 50.007812 39.121094 C 52.378906 39.121094 54.304688 41.527344 54.304688 44.496094 Z M 88.152344 80.867188 C 88.152344 81.71875 87.601562 82.402344 86.925781 82.402344 L 80.777344 82.402344 C 80.101562 82.402344 79.550781 81.71875 79.550781 80.867188 L 79.550781 65.554688 C 79.550781 62.589844 81.476562 60.183594 83.851562 60.183594 C 86.222656 60.183594 88.152344 62.589844 88.152344 65.554688 Z M 88.152344 80.867188 "/>
</g>
</svg>
