<?xml version="1.0" encoding="UTF-8"?>
<svg xmlns="http://www.w3.org/2000/svg" xmlns:xlink="http://www.w3.org/1999/xlink" width="100pt" height="100pt" viewBox="0 0 100 100" version="1.1">
<g id="surface1">
<path style=" stroke:none;fill-rule:nonzero;fill:rgb(0%,0%,0%);fill-opacity:1;" d="M 34.5 23.222656 L 65.511719 23.222656 C 65.933594 23.222656 66.324219 22.980469 66.515625 22.601562 C 66.707031 22.21875 66.667969 21.765625 66.414062 21.421875 L 50.910156 0.457031 C 50.695312 0.167969 50.363281 0 50.007812 0 C 49.648438 0 49.3125 0.167969 49.101562 0.457031 L 33.597656 21.421875 C 33.339844 21.765625 33.300781 22.21875 33.492188 22.601562 C 33.683594 22.980469 34.074219 23.222656 34.5 23.222656 Z M 34.5 23.222656 "/>
<path style=" stroke:none;fill-rule:nonzero;fill:rgb(0%,0%,0%);fill-opacity:1;" d="M 97.296875 37.796875 C 97.296875 36.898438 96.566406 36.171875 95.671875 36.171875 L 92.546875 36.171875 C 91.65625 36.171875 90.933594 36.886719 90.921875 37.777344 L 90.878906 41.277344 L 87.058594 41.277344 L 87.058594 37.796875 C 87.058594 36.898438 86.328125 36.171875 85.433594 36.171875 L 82.261719 36.171875 C 81.363281 36.171875 80.636719 36.898438 80.636719 37.796875 L 80.636719 41.277344 L 76.824219 41.277344 L 76.824219 37.796875 C 76.824219 36.898438 76.09375 36.171875 75.199219 36.171875 L 72.023438 36.171875 C 71.125 36.171875 70.398438 36.898438 70.398438 37.796875 L 70.382812 52.707031 L 62.894531 52.707031 L 62.894531 27.636719 C 62.894531 26.953125 62.34375 26.40625 61.667969 26.40625 L 38.347656 26.40625 C 37.671875 26.40625 37.121094 26.953125 37.121094 27.636719 L 37.121094 52.707031 L 29.695312 52.707031 L 29.707031 37.800781 C 29.707031 37.371094 29.535156 36.953125 29.230469 36.648438 C 28.925781 36.34375 28.511719 36.171875 28.082031 36.171875 L 24.84375 36.171875 C 23.945312 36.171875 23.21875 36.898438 23.21875 37.796875 L 23.21875 41.277344 L 19.402344 41.277344 L 19.402344 37.796875 C 19.402344 36.898438 18.675781 36.171875 17.777344 36.171875 L 14.609375 36.171875 C 13.710938 36.171875 12.984375 36.898438 12.984375 37.796875 L 12.984375 41.277344 L 9.164062 41.277344 L 9.164062 37.796875 C 9.164062 36.898438 8.433594 36.171875 7.539062 36.171875 L 4.367188 36.171875 C 3.46875 36.171875 2.742188 36.898438 2.738281 37.796875 L 2.679688 100.160156 L 37.839844 100.160156 L 37.839844 89.648438 C 37.839844 82.921875 43.285156 77.46875 50 77.46875 C 56.714844 77.46875 62.160156 82.921875 62.160156 89.648438 L 62.160156 100.160156 L 97.320312 100.160156 Z M 20.492188 64.796875 C 20.492188 65.480469 19.945312 66.027344 19.265625 66.027344 L 13.121094 66.027344 C 12.445312 66.027344 11.894531 65.480469 11.894531 64.796875 L 11.894531 52.527344 C 11.894531 50.152344 13.820312 48.222656 16.195312 48.222656 C 18.566406 48.222656 20.492188 50.152344 20.492188 52.527344 Z M 54.304688 47.921875 C 54.304688 48.601562 53.757812 49.152344 53.078125 49.152344 L 46.933594 49.152344 C 46.253906 49.152344 45.707031 48.601562 45.707031 47.921875 L 45.707031 35.652344 C 45.707031 33.273438 47.628906 31.347656 50.007812 31.347656 C 52.378906 31.347656 54.304688 33.273438 54.304688 35.652344 Z M 88.152344 64.796875 C 88.152344 65.480469 87.601562 66.027344 86.925781 66.027344 L 80.777344 66.027344 C 80.101562 66.027344 79.550781 65.480469 79.550781 64.796875 L 79.550781 52.527344 C 79.550781 50.152344 81.476562 48.222656 83.851562 48.222656 C 86.222656 48.222656 88.152344 50.152344 88.152344 52.527344 Z M 88.152344 64.796875 "/>
</g>
</svg>
