<?xml version="1.0" encoding="UTF-8"?>
<svg xmlns="http://www.w3.org/2000/svg" xmlns:xlink="http://www.w3.org/1999/xlink" width="100pt" height="100pt" viewBox="0 0 100 100" version="1.1">
<g id="surface1">
<path style=" stroke:none;fill-rule:nonzero;fill:rgb(0%,0%,0%);fill-opacity:1;" d="M 61.726562 44.960938 L 61.726562 36.035156 L 62.804688 36.035156 C 64.566406 36.035156 65.996094 34.605469 65.996094 32.839844 L 65.996094 24.292969 C 65.996094 22.527344 64.566406 21.097656 62.804688 21.097656 L 57.683594 21.097656 C 58.175781 20.519531 58.457031 19.777344 58.457031 19.019531 C 58.457031 18.175781 58.117188 17.351562 57.519531 16.757812 C 56.925781 16.164062 56.105469 15.820312 55.265625 15.820312 C 54.425781 15.820312 53.601562 16.164062 53.007812 16.757812 C 52.414062 17.351562 52.074219 18.175781 52.074219 19.019531 C 52.074219 19.777344 52.355469 20.519531 52.84375 21.097656 L 37.195312 21.097656 C 36.347656 21.097656 35.539062 21.429688 34.941406 22.027344 C 34.339844 22.628906 34.003906 23.445312 34.003906 24.292969 L 34.003906 32.839844 C 34.003906 34.605469 35.433594 36.035156 37.195312 36.035156 L 38.273438 36.035156 L 38.273438 44.960938 C 27.972656 49.5625 21.199219 59.878906 21.199219 71.3125 C 21.199219 87.222656 34.121094 100.160156 50 100.160156 C 65.878906 100.160156 78.800781 87.222656 78.800781 71.3125 C 78.800781 59.878906 72.027344 49.5625 61.726562 44.960938 Z M 42.527344 50.140625 C 43.800781 49.6875 44.65625 48.480469 44.65625 47.125 L 44.65625 32.839844 C 44.65625 31.074219 43.226562 29.644531 41.464844 29.644531 L 40.386719 29.644531 L 40.386719 27.488281 L 59.613281 27.488281 L 59.613281 29.644531 L 58.535156 29.644531 C 56.773438 29.644531 55.347656 31.074219 55.347656 32.839844 L 55.347656 47.125 C 55.347656 48.480469 56.199219 49.6875 57.472656 50.140625 C 62.421875 51.890625 66.464844 55.28125 69.09375 59.566406 L 65.191406 59.566406 C 63.65625 56.160156 60.316406 53.789062 56.453125 53.789062 C 53.972656 53.789062 51.710938 54.761719 50 56.363281 C 48.292969 54.761719 46.027344 53.789062 43.550781 53.789062 C 39.683594 53.789062 36.347656 56.160156 34.808594 59.566406 L 30.90625 59.566406 C 33.535156 55.28125 37.582031 51.890625 42.527344 50.140625 Z M 50 66.980469 C 51.761719 66.980469 53.191406 65.550781 53.191406 63.785156 C 53.191406 61.800781 54.65625 60.179688 56.453125 60.179688 C 58.25 60.179688 59.710938 61.800781 59.710938 63.785156 C 59.710938 66.820312 54.421875 71.921875 50 75.1875 C 45.578125 71.921875 40.289062 66.820312 40.289062 63.785156 C 40.289062 61.800781 41.75 60.179688 43.550781 60.179688 C 45.347656 60.179688 46.808594 61.800781 46.808594 63.785156 C 46.808594 65.550781 48.238281 66.980469 50 66.980469 Z M 50 93.769531 C 37.636719 93.769531 27.582031 83.695312 27.582031 71.3125 C 27.582031 69.484375 27.808594 67.691406 28.234375 65.960938 L 34.164062 65.960938 C 34.917969 69.148438 37.296875 72.566406 41.386719 76.335938 C 44.765625 79.453125 48.105469 81.660156 48.246094 81.753906 C 48.78125 82.105469 49.390625 82.28125 50 82.28125 C 50.613281 82.28125 51.222656 82.105469 51.753906 81.753906 C 51.894531 81.660156 55.234375 79.453125 58.613281 76.335938 C 62.703125 72.566406 65.085938 69.148438 65.835938 65.960938 L 71.765625 65.960938 C 72.191406 67.691406 72.417969 69.484375 72.417969 71.3125 C 72.417969 83.695312 62.359375 93.769531 50 93.769531 Z M 50 93.769531 "/>
<path style=" stroke:none;fill-rule:nonzero;fill:rgb(0%,0%,0%);fill-opacity:1;" d="M 44.734375 16.941406 C 45.574219 16.941406 46.394531 16.597656 46.988281 16.003906 C 47.582031 15.410156 47.925781 14.585938 47.925781 13.742188 C 47.925781 12.902344 47.582031 12.078125 46.988281 11.484375 C 46.394531 10.890625 45.574219 10.546875 44.734375 10.546875 C 43.894531 10.546875 43.070312 10.890625 42.476562 11.484375 C 41.882812 12.078125 41.542969 12.902344 41.542969 13.742188 C 41.542969 14.585938 41.882812 15.410156 42.476562 16.003906 C 43.070312 16.597656 43.894531 16.941406 44.734375 16.941406 Z M 44.734375 16.941406 "/>
<path style=" stroke:none;fill-rule:nonzero;fill:rgb(0%,0%,0%);fill-opacity:1;" d="M 34.203125 11.664062 C 35.042969 11.664062 35.867188 11.324219 36.460938 10.730469 C 37.054688 10.136719 37.394531 9.3125 37.394531 8.46875 C 37.394531 7.632812 37.054688 6.804688 36.460938 6.210938 C 35.867188 5.613281 35.042969 5.273438 34.203125 5.273438 C 33.363281 5.273438 32.539062 5.613281 31.949219 6.210938 C 31.355469 6.804688 31.011719 7.632812 31.011719 8.46875 C 31.011719 9.3125 31.355469 10.136719 31.949219 10.730469 C 32.539062 11.324219 33.363281 11.664062 34.203125 11.664062 Z M 34.203125 11.664062 "/>
<path style=" stroke:none;fill-rule:nonzero;fill:rgb(0%,0%,0%);fill-opacity:1;" d="M 44.734375 6.390625 C 45.574219 6.390625 46.394531 6.050781 46.988281 5.457031 C 47.585938 4.859375 47.925781 4.039062 47.925781 3.195312 C 47.925781 2.355469 47.585938 1.53125 46.988281 0.9375 C 46.394531 0.339844 45.574219 0 44.734375 0 C 43.894531 0 43.070312 0.339844 42.476562 0.9375 C 41.882812 1.53125 41.542969 2.355469 41.542969 3.195312 C 41.542969 4.039062 41.882812 4.859375 42.476562 5.457031 C 43.074219 6.050781 43.894531 6.390625 44.734375 6.390625 Z M 44.734375 6.390625 "/>
<path style=" stroke:none;fill-rule:nonzero;fill:rgb(0%,0%,0%);fill-opacity:1;" d="M 60.527344 11.664062 C 61.367188 11.664062 62.191406 11.324219 62.785156 10.730469 C 63.382812 10.136719 63.71875 9.3125 63.71875 8.46875 C 63.71875 7.632812 63.382812 6.804688 62.785156 6.210938 C 62.191406 5.613281 61.367188 5.273438 60.527344 5.273438 C 59.691406 5.273438 58.867188 5.613281 58.273438 6.210938 C 57.679688 6.804688 57.339844 7.632812 57.339844 8.46875 C 57.339844 9.316406 57.679688 10.136719 58.273438 10.730469 C 58.867188 11.324219 59.691406 11.664062 60.527344 11.664062 Z M 60.527344 11.664062 "/>
</g>
</svg>
