<?xml version="1.0" encoding="UTF-8"?>
<svg xmlns="http://www.w3.org/2000/svg" xmlns:xlink="http://www.w3.org/1999/xlink" width="100pt" height="125pt" viewBox="0 0 100 125" version="1.1">
<g id="surface1">
<path style=" stroke:none;fill-rule:nonzero;fill:rgb(0%,0%,0%);fill-opacity:1;" d="M 61.726562 56.113281 L 61.726562 44.972656 L 62.804688 44.972656 C 64.566406 44.972656 65.996094 43.1875 65.996094 40.984375 L 65.996094 30.316406 C 65.996094 28.113281 64.566406 26.328125 62.804688 26.328125 L 57.683594 26.328125 C 58.175781 25.609375 58.457031 24.679688 58.457031 23.734375 C 58.457031 22.683594 58.117188 21.65625 57.519531 20.914062 C 56.925781 20.171875 56.105469 19.746094 55.265625 19.746094 C 54.425781 19.746094 53.601562 20.171875 53.007812 20.914062 C 52.414062 21.65625 52.074219 22.683594 52.074219 23.734375 C 52.074219 24.679688 52.355469 25.609375 52.84375 26.328125 L 37.195312 26.328125 C 36.347656 26.328125 35.539062 26.746094 34.941406 27.492188 C 34.339844 28.242188 34.003906 29.257812 34.003906 30.316406 L 34.003906 40.984375 C 34.003906 43.1875 35.433594 44.972656 37.195312 44.972656 L 38.273438 44.972656 L 38.273438 56.113281 C 27.972656 61.855469 21.199219 74.730469 21.199219 89 C 21.199219 108.851562 34.121094 125 50 125 C 65.878906 125 78.800781 108.851562 78.800781 89 C 78.800781 74.730469 72.027344 61.855469 61.726562 56.113281 Z M 42.527344 62.574219 C 43.800781 62.011719 44.65625 60.503906 44.65625 58.8125 L 44.65625 40.984375 C 44.65625 38.78125 43.226562 36.996094 41.464844 36.996094 L 40.386719 36.996094 L 40.386719 34.304688 L 59.613281 34.304688 L 59.613281 36.996094 L 58.535156 36.996094 C 56.773438 36.996094 55.347656 38.78125 55.347656 40.984375 L 55.347656 58.8125 C 55.347656 60.503906 56.199219 62.011719 57.472656 62.574219 C 62.421875 64.761719 66.464844 68.992188 69.09375 74.339844 L 65.191406 74.339844 C 63.65625 70.085938 60.316406 67.128906 56.453125 67.128906 C 53.972656 67.128906 51.710938 68.34375 50 70.339844 C 48.292969 68.34375 46.027344 67.128906 43.550781 67.128906 C 39.683594 67.128906 36.347656 70.085938 34.808594 74.339844 L 30.90625 74.339844 C 33.535156 68.992188 37.582031 64.761719 42.527344 62.574219 Z M 50 83.59375 C 51.761719 83.59375 53.191406 81.808594 53.191406 79.605469 C 53.191406 77.125 54.65625 75.105469 56.453125 75.105469 C 58.25 75.105469 59.710938 77.125 59.710938 79.605469 C 59.710938 83.390625 54.421875 89.757812 50 93.832031 C 45.578125 89.757812 40.289062 83.390625 40.289062 79.605469 C 40.289062 77.125 41.75 75.105469 43.550781 75.105469 C 45.347656 75.105469 46.808594 77.125 46.808594 79.605469 C 46.808594 81.808594 48.238281 83.59375 50 83.59375 Z M 50 117.023438 C 37.636719 117.023438 27.582031 104.453125 27.582031 89 C 27.582031 86.714844 27.808594 84.476562 28.234375 82.320312 L 34.164062 82.320312 C 34.917969 86.296875 37.296875 90.5625 41.386719 95.269531 C 44.765625 99.15625 48.105469 101.914062 48.246094 102.03125 C 48.78125 102.46875 49.390625 102.6875 50 102.6875 C 50.613281 102.6875 51.222656 102.46875 51.753906 102.03125 C 51.894531 101.914062 55.234375 99.15625 58.613281 95.269531 C 62.703125 90.5625 65.085938 86.296875 65.835938 82.320312 L 71.765625 82.320312 C 72.191406 84.476562 72.417969 86.714844 72.417969 89 C 72.417969 104.453125 62.359375 117.023438 50 117.023438 Z M 50 117.023438 "/>
<path style=" stroke:none;fill-rule:nonzero;fill:rgb(0%,0%,0%);fill-opacity:1;" d="M 44.734375 21.140625 C 45.574219 21.140625 46.394531 20.714844 46.988281 19.972656 C 47.582031 19.230469 47.925781 18.203125 47.925781 17.152344 C 47.925781 16.101562 47.582031 15.074219 46.988281 14.332031 C 46.394531 13.589844 45.574219 13.164062 44.734375 13.164062 C 43.894531 13.164062 43.070312 13.589844 42.476562 14.332031 C 41.882812 15.074219 41.542969 16.101562 41.542969 17.152344 C 41.542969 18.203125 41.882812 19.230469 42.476562 19.972656 C 43.070312 20.714844 43.894531 21.140625 44.734375 21.140625 Z M 44.734375 21.140625 "/>
<path style=" stroke:none;fill-rule:nonzero;fill:rgb(0%,0%,0%);fill-opacity:1;" d="M 34.203125 14.558594 C 35.042969 14.558594 35.867188 14.132812 36.460938 13.390625 C 37.054688 12.648438 37.394531 11.621094 37.394531 10.570312 C 37.394531 9.523438 37.054688 8.492188 36.460938 7.75 C 35.867188 7.007812 35.042969 6.582031 34.203125 6.582031 C 33.363281 6.582031 32.539062 7.007812 31.949219 7.75 C 31.355469 8.492188 31.011719 9.523438 31.011719 10.570312 C 31.011719 11.621094 31.355469 12.648438 31.949219 13.390625 C 32.539062 14.132812 33.363281 14.558594 34.203125 14.558594 Z M 34.203125 14.558594 "/>
<path style=" stroke:none;fill-rule:nonzero;fill:rgb(0%,0%,0%);fill-opacity:1;" d="M 44.734375 7.976562 C 45.574219 7.976562 46.394531 7.550781 46.988281 6.808594 C 47.585938 6.066406 47.925781 5.039062 47.925781 3.988281 C 47.925781 2.941406 47.585938 1.910156 46.988281 1.167969 C 46.394531 0.425781 45.574219 0 44.734375 0 C 43.894531 0 43.070312 0.425781 42.476562 1.167969 C 41.882812 1.910156 41.542969 2.941406 41.542969 3.988281 C 41.542969 5.039062 41.882812 6.066406 42.476562 6.808594 C 43.074219 7.550781 43.894531 7.976562 44.734375 7.976562 Z M 44.734375 7.976562 "/>
<path style=" stroke:none;fill-rule:nonzero;fill:rgb(0%,0%,0%);fill-opacity:1;" d="M 60.527344 14.558594 C 61.367188 14.558594 62.191406 14.132812 62.785156 13.390625 C 63.382812 12.648438 63.71875 11.621094 63.71875 10.570312 C 63.71875 9.523438 63.382812 8.492188 62.785156 7.75 C 62.191406 7.007812 61.367188 6.582031 60.527344 6.582031 C 59.691406 6.582031 58.867188 7.007812 58.273438 7.75 C 57.679688 8.492188 57.339844 9.523438 57.339844 10.570312 C 57.339844 11.625 57.679688 12.648438 58.273438 13.390625 C 58.867188 14.132812 59.691406 14.558594 60.527344 14.558594 Z M 60.527344 14.558594 "/>
</g>
</svg>
