<?xml version='1.0' encoding='iso-8859-1'?>
<!DOCTYPE svg PUBLIC '-//W3C//DTD SVG 1.1//EN' 'http://www.w3.org/Graphics/SVG/1.1/DTD/svg11.dtd'>
<svg version="1.1" xmlns="http://www.w3.org/2000/svg" viewBox="0 0 297 297" xmlns:xlink="http://www.w3.org/1999/xlink" enable-background="new 0 0 297 297">
  <g>
    <path d="m183.331,133.328v-26.471h3.197c5.234,0 9.479-4.244 9.479-9.478v-25.35c0-5.234-4.244-9.477-9.479-9.477h-15.205c1.463-1.706 2.289-3.911 2.289-6.161 0-2.492-1.006-4.938-2.777-6.701-1.764-1.763-4.199-2.776-6.701-2.776-2.492,0-4.938,1.014-6.699,2.776-1.764,1.764-2.777,4.209-2.777,6.701 0,2.249 0.832,4.455 2.289,6.16h-46.475c-2.514,0-4.924,0.998-6.701,2.775-1.777,1.778-2.775,4.188-2.775,6.702v25.353c0,5.233 4.242,9.478 9.477,9.478h3.199v26.47c-30.588,13.641-50.705,44.233-50.707,78.138 0,47.163 38.371,85.534 85.535,85.534 47.164,0 85.537-38.371 85.537-85.534-0.001-33.904-20.118-64.498-50.706-78.139zm-57.025,15.351c3.787-1.339 6.32-4.919 6.32-8.936v-42.362c0-5.234-4.244-9.478-9.479-9.478h-3.199v-6.397h57.104v6.396h-3.199c-5.232,0-9.476,4.244-9.476,9.478v42.362c0,4.018 2.531,7.598 6.318,8.936 14.693,5.193 26.709,15.245 34.518,27.958h-11.594c-4.565-10.112-14.479-17.139-25.953-17.139-7.363,0-14.084,2.89-19.162,7.631-5.078-4.741-11.801-7.631-19.162-7.631-11.477,0-21.393,7.026-25.959,17.139h-11.595c7.811-12.712 19.826-22.764 34.518-27.957zm22.197,49.938c5.232,0 9.477-4.243 9.477-9.477 0-5.893 4.346-10.688 9.686-10.688 5.338,0 9.68,4.794 9.68,10.688 0,8.997-15.713,24.128-28.844,33.806-13.131-9.678-28.846-24.809-28.846-33.805 0-5.894 4.346-10.689 9.686-10.689 5.34,0 9.684,4.794 9.684,10.688-0.002,5.234 4.243,9.477 9.477,9.477zm-.004,79.429c-36.713,0-66.58-29.867-66.58-66.58 0-5.432 0.67-10.754 1.932-15.874h17.621c2.229,9.453 9.303,19.586 21.449,30.768 10.033,9.236 19.957,15.792 20.375,16.066 1.58,1.04 3.393,1.559 5.207,1.559 1.813,0 3.627-0.52 5.207-1.559 0.418-0.274 10.34-6.83 20.371-16.067 12.145-11.183 19.219-21.313 21.447-30.767h17.621c1.262,5.12 1.932,10.442 1.932,15.874 0,36.713-29.869,66.58-66.582,66.58z"/>
    <path d="m132.858,50.23c2.502,0 4.938-1.015 6.701-2.777 1.762-1.763 2.777-4.198 2.777-6.7 0-2.492-1.016-4.938-2.777-6.7-1.764-1.764-4.199-2.777-6.701-2.777-2.492,0-4.937,1.014-6.699,2.777-1.764,1.763-2.777,4.208-2.777,6.7 0,2.502 1.014,4.938 2.777,6.7 1.762,1.763 4.207,2.777 6.699,2.777z"/>
    <path d="m101.585,34.593c2.492,0 4.937-1.015 6.699-2.777 1.771-1.763 2.777-4.208 2.777-6.7s-1.006-4.938-2.777-6.701c-1.762-1.763-4.207-2.776-6.699-2.776-2.494,0-4.94,1.014-6.701,2.776-1.764,1.764-2.777,4.209-2.777,6.701s1.014,4.938 2.777,6.7c1.761,1.762 4.207,2.777 6.701,2.777z"/>
    <path d="m132.858,18.955c2.494,0 4.938-1.015 6.701-2.777 1.771-1.762 2.777-4.207 2.777-6.7 0-2.492-1.006-4.938-2.777-6.7-1.763-1.764-4.199-2.778-6.701-2.778-2.492,0-4.937,1.014-6.699,2.777-1.764,1.763-2.777,4.208-2.777,6.7 0,2.493 1.014,4.939 2.777,6.7 1.772,1.763 4.207,2.778 6.699,2.778z"/>
    <path d="m179.772,34.593c2.492,0 4.938-1.015 6.699-2.777 1.771-1.763 2.777-4.208 2.777-6.7s-1.006-4.938-2.777-6.701c-1.762-1.763-4.207-2.776-6.699-2.776-2.492,0-4.937,1.014-6.701,2.776-1.764,1.764-2.777,4.209-2.777,6.701 0,2.502 1.014,4.938 2.777,6.7 1.764,1.762 4.209,2.777 6.701,2.777z"/>
  </g>
</svg>
